<mxfile host="app.diagrams.net" modified="2021-11-09T00:26:02.836Z" agent="5.0 (Windows NT 10.0; Win64; x64) AppleWebKit/537.36 (KHTML, like Gecko) Chrome/95.0.4638.69 Safari/537.36" etag="mbb11NmQi-p3cXVjJIX3" version="15.7.0" type="github">
  <diagram id="R62NtZp_EgnwlclMu1k9" name="Page-1">
    <mxGraphModel dx="1255" dy="774" grid="1" gridSize="10" guides="1" tooltips="1" connect="1" arrows="1" fold="1" page="1" pageScale="1" pageWidth="827" pageHeight="1169" math="0" shadow="0">
      <root>
        <mxCell id="0" />
        <mxCell id="1" parent="0" />
        <mxCell id="-1mOkbNJPwK_JQLnuKbk-1" value="로고" style="rounded=0;whiteSpace=wrap;html=1;" vertex="1" parent="1">
          <mxGeometry x="10" y="10" width="140" height="80" as="geometry" />
        </mxCell>
        <mxCell id="-1mOkbNJPwK_JQLnuKbk-2" value="네이게이션 바" style="rounded=1;whiteSpace=wrap;html=1;" vertex="1" parent="1">
          <mxGeometry x="150" y="10" width="630" height="80" as="geometry" />
        </mxCell>
        <mxCell id="-1mOkbNJPwK_JQLnuKbk-3" value="로그인창&lt;br&gt;회원가입&lt;br&gt;비밀번호 찾기" style="whiteSpace=wrap;html=1;aspect=fixed;" vertex="1" parent="1">
          <mxGeometry x="10" y="150" width="140" height="140" as="geometry" />
        </mxCell>
        <mxCell id="-1mOkbNJPwK_JQLnuKbk-4" value="본문내용" style="rounded=0;whiteSpace=wrap;html=1;" vertex="1" parent="1">
          <mxGeometry x="160" y="150" width="620" height="260" as="geometry" />
        </mxCell>
      </root>
    </mxGraphModel>
  </diagram>
</mxfile>
